# xmcd CD database file
#
# Track frame offsets:
#	150
#	14497
#	33292
#	54157
#	70212
#	90620
#	104180
#	122747
#	142090
#	162320
#	179620
#	195934
#	209265
#	234352
#	247652
#	266132
#
# Disc length: 3658 seconds
#
# Revision: 0
# Processed by: cddbd v1.5.1PL0 Copyright (c) Steve Scherf et al.
# Submitted via: CDex 1.51
#
DISCID=df0e4810
DTITLE=Seiko Sumi - For You
DYEAR=2001
DGENRE=New Age
TTITLE0=My Baby Grand
TTITLE1=Happy Ending
TTITLE2=Night Sky
TTITLE3=Time Goes By
TTITLE4=However
TTITLE5=Love Is
TTITLE6=Pianissimo
TTITLE7=Hearted Poem
TTITLE8=Pride
TTITLE9=The Other Side Of Love
TTITLE10=Salary
TTITLE11=Do Not
TTITLE12=Can You Celebrate?
TTITLE13=Forever
TTITLE14=Eternity
TTITLE15=Beautiful Days
EXTD=YEAR: 2001
EXTT0=
EXTT1=
EXTT2=
EXTT3=
EXTT4=
EXTT5=
EXTT6=
EXTT7=
EXTT8=
EXTT9=
EXTT10=
EXTT11=
EXTT12=
EXTT13=
EXTT14=
EXTT15=
PLAYORDER=
